<?xml version="1.0" encoding="UTF-8"?>
<svg width="250px" height="166px" viewBox="0 0 250 166" version="1.1" xmlns="http://www.w3.org/2000/svg" xmlns:xlink="http://www.w3.org/1999/xlink">
    <title>Demo NPM</title>
    <defs>
        <linearGradient x1="50%" y1="100.000004%" x2="50%" y2="0%" id="linearGradient-1">
            <stop stop-color="#808080" stop-opacity="0.25" offset="0%"></stop>
            <stop stop-color="#808080" stop-opacity="0.12" offset="53.514%"></stop>
            <stop stop-color="#808080" stop-opacity="0.1" offset="100%"></stop>
        </linearGradient>
        <linearGradient x1="49.9999987%" y1="100%" x2="49.9999987%" y2="0%" id="linearGradient-2">
            <stop stop-color="#808080" stop-opacity="0.25" offset="0%"></stop>
            <stop stop-color="#808080" stop-opacity="0.12" offset="53.514%"></stop>
            <stop stop-color="#808080" stop-opacity="0.1" offset="100%"></stop>
        </linearGradient>
        <linearGradient x1="50%" y1="100.000005%" x2="50%" y2="0%" id="linearGradient-3">
            <stop stop-color="#808080" stop-opacity="0.25" offset="0%"></stop>
            <stop stop-color="#808080" stop-opacity="0.12" offset="53.514%"></stop>
            <stop stop-color="#808080" stop-opacity="0.1" offset="100%"></stop>
        </linearGradient>
        <linearGradient x1="50.0000035%" y1="100%" x2="50.0000035%" y2="0%" id="linearGradient-4">
            <stop stop-color="#808080" stop-opacity="0.25" offset="0%"></stop>
            <stop stop-color="#808080" stop-opacity="0.12" offset="53.514%"></stop>
            <stop stop-color="#808080" stop-opacity="0.1" offset="100%"></stop>
        </linearGradient>
        <linearGradient x1="49.9998484%" y1="100.000252%" x2="49.9998484%" y2="0.000359165208%" id="linearGradient-5">
            <stop stop-color="#808080" stop-opacity="0.25" offset="0%"></stop>
            <stop stop-color="#808080" stop-opacity="0.12" offset="53.514%"></stop>
            <stop stop-color="#808080" stop-opacity="0.1" offset="100%"></stop>
        </linearGradient>
        <linearGradient x1="49.9995451%" y1="100.000252%" x2="49.9995451%" y2="0.000359165208%" id="linearGradient-6">
            <stop stop-color="#808080" stop-opacity="0.25" offset="0%"></stop>
            <stop stop-color="#808080" stop-opacity="0.12" offset="53.514%"></stop>
            <stop stop-color="#808080" stop-opacity="0.1" offset="100%"></stop>
        </linearGradient>
        <linearGradient x1="50.0002426%" y1="100.000252%" x2="50.0002426%" y2="0.000359165208%" id="linearGradient-7">
            <stop stop-color="#808080" stop-opacity="0.25" offset="0%"></stop>
            <stop stop-color="#808080" stop-opacity="0.12" offset="53.514%"></stop>
            <stop stop-color="#808080" stop-opacity="0.1" offset="100%"></stop>
        </linearGradient>
        <linearGradient x1="49.9989992%" y1="100.000252%" x2="49.9989992%" y2="0.000359165208%" id="linearGradient-8">
            <stop stop-color="#808080" stop-opacity="0.25" offset="0%"></stop>
            <stop stop-color="#808080" stop-opacity="0.12" offset="53.514%"></stop>
            <stop stop-color="#808080" stop-opacity="0.1" offset="100%"></stop>
        </linearGradient>
        <linearGradient x1="50.0002135%" y1="100.000111%" x2="50.0002135%" y2="3.70546037e-05%" id="linearGradient-9">
            <stop stop-color="#808080" stop-opacity="0.25" offset="0%"></stop>
            <stop stop-color="#808080" stop-opacity="0.12" offset="53.514%"></stop>
            <stop stop-color="#808080" stop-opacity="0.1" offset="100%"></stop>
        </linearGradient>
    </defs>
    <g id="Demo-NPM" stroke="none" stroke-width="1" fill="none" fill-rule="evenodd">
        <g id="undraw_JavaScript_frameworks_8qpc" transform="translate(36.000000, 0.000000)" fill-rule="nonzero">
            <path d="M173,134.215278 C173,144.432188 166.731939,148 159.000484,148 C158.820481,148 158.641448,147.998112 158.463394,147.993399 C158.10533,147.985855 157.750184,147.970771 157.399904,147.946256 C150.421549,147.468221 145,143.716554 145,134.215278 C145,124.383059 157.964244,111.975865 158.942106,111.054681 L158.944055,111.053737 C158.98103,111.017914 159.000484,111 159.000484,111 C159.000484,111 173,123.997424 173,134.215278 Z" id="Path" fill="#3F3D56"></path>
            <path d="M158.752313,146.443043 L163.987392,139.50891 L158.739383,147.204079 L158.725461,148 C158.359414,147.992455 157.996349,147.977369 157.638259,147.952849 L158.202249,137.729401 L158.198268,137.650183 L158.208217,137.635099 L158.260934,136.669426 L153,128.954444 L158.276852,135.945168 L158.289783,136.149819 L158.716503,128.42541 L154.212531,120.453933 L158.771209,127.068381 L159.214846,111.054691 L159.216837,111 L159.216837,111.053747 L159.143216,123.681943 L163.626304,118.675363 L159.124317,124.769268 L159.005953,131.685495 L163.192622,125.048409 L158.988067,132.703956 L158.92242,136.548715 L165,127.30979 L158.899544,137.89066 L158.752313,146.443043 Z" id="Path" fill="#F2F2F2"></path>
            <path d="M31,145.803679 C31,151.878609 27.4182533,154 23.0002823,154 C22.8974245,154 22.795118,153.998879 22.6933738,153.996076 C22.4887651,153.991594 22.2858257,153.982629 22.0856667,153.968044 C18.0980389,153.683809 15,151.45309 15,145.803679 C15,139.957496 22.4081335,132.580246 22.9669121,132.032514 L22.9680234,132.031953 C22.9891515,132.010663 23.0002689,132 23.0002689,132 C23.0002689,132 31,139.728199 31,145.803679 Z" id="Path" fill="#3F3D56"></path>
            <path d="M23.3555193,153.074245 L26.4093175,148.951243 L23.3479762,153.526749 L23.339858,154 C23.1263291,153.995517 22.9145422,153.986551 22.705657,153.971963 L23.0346507,147.893155 L23.0323312,147.846054 L23.03813,147.837088 L23.068882,147.262903 L20,142.67562 L23.0781669,146.832267 L23.08571,146.953947 L23.3346321,142.361053 L20.7073048,137.621252 L23.3665369,141.554176 L23.6253239,132.03252 L23.6264837,132 L23.6264837,132.031959 L23.5835427,139.540618 L26.1986811,136.563732 L23.5725181,140.18713 L23.5034735,144.299483 L25.9456974,140.35311 L23.4930287,144.905061 L23.4547337,147.191135 L27,141.697708 L23.4413966,147.989039 L23.3555193,153.074245 Z" id="Path" fill="#F2F2F2"></path>
            <rect id="Rectangle" fill="url(#linearGradient-1)" x="31" y="45" width="64" height="62"></rect>
            <rect id="Rectangle" fill="#FFFFFF" x="32" y="46" width="62" height="59"></rect>
            <rect id="Rectangle" fill="#387ED1" x="35" y="49" width="58" height="54"></rect>
            <g id="Group" opacity="0.5" transform="translate(1.000000, 0.000000)" fill="url(#linearGradient-2)">
                <rect id="Rectangle" x="0.0560568182" y="0" width="84.7947977" height="36.7831236"></rect>
            </g>
            <rect id="Rectangle" fill="#FFFFFF" x="2" y="0" width="83" height="36"></rect>
            <rect id="Rectangle" fill="#387ED1" x="4" y="2" width="78" height="32"></rect>
            <path d="M69.7163248,13 L72,13.0134886 C72,13.0134886 67.7541995,19.1826056 67.4074929,19.6853808 C67.2638105,19.854243 67.1394688,20.0409171 67.0371143,20.2414301 C66.8495003,20.8115129 66.7009478,21.3955209 66.5926413,21.9887981 L64.5031119,22 C64.5031119,22 64.8282837,20.7488933 64.8148516,20.0825244 C64.8031269,19.5004121 64.525929,18.9189849 64.3704854,18.3351588 C64.2133256,17.7441265 64,16.587681 64,16.587681 L66.1482729,16.587681 L66.4445615,17.8585659 L69.7163337,13" id="Path" fill="#FFFFFF"></path>
            <path d="M64.3144183,14.2375409 C64.7392679,14.5048219 65,15.9793057 65,15.9793057 C65,15.9793057 62.77699,16.0135139 61.5672513,16.0135139 L60.5218432,16.0135139 L59.252348,21.780209 L57.3109217,21.780209 C57.3109217,21.780209 58.5191547,15.5132652 58.8043939,14.3770643 C58.8968189,14.0091728 59.4376357,14.0723198 60.35085,14.0723198 L61.8091784,14.0723198 C62.7508717,14.0723198 63.8515234,13.9468103 64.3144183,14.2375338 M55.2760987,17.0460717 C55.2993357,16.7629342 55.2266949,16.4802579 55.0708211,16.2472496 C54.8437249,15.8818241 54.6340423,15.7968061 54.0365906,15.7772911 C52.3497701,15.7219941 52.3825487,17.026552 52.3825487,17.026552 L55.2760987,17.0460717 Z M57.1055365,15.5520729 C57.3527281,16.4826831 56.8815571,18.6692826 56.8815571,18.6692826 C56.8815571,18.6692826 54.4210251,18.6264258 53.0732917,18.6692826 C52.6542475,18.6826314 52.1526609,18.6217256 52.0278836,18.8251876 C51.8523777,19.1103022 52.092045,19.549193 52.2951728,19.7345966 C52.5289316,19.9480421 52.9843023,19.9723814 53.1479866,19.9940276 C54.2418681,20.1390545 56.5312993,20.031498 56.5312993,20.031498 L56.1347156,21.8642246 C56.1347156,21.8642246 52.8993992,22.0335908 51.2811475,21.6304796 C50.9697955,21.5607833 50.6844742,21.3984022 50.4597165,21.1629894 C50.4044728,21.1007394 50.3565425,21.0158315 50.3043059,20.9424785 C50.2172961,20.8171709 50.1441758,20.6819751 50.0863451,20.5394796 C49.7167391,19.5116196 50.1296549,17.5425077 50.5344092,16.4872896 C50.5813768,16.3650425 50.6403792,16.2099126 50.7024986,16.0781222 C50.780095,15.9138051 50.8457644,15.7282892 50.9077761,15.6300347 C50.949477,15.5622906 51.0011706,15.5186586 51.0444849,15.4547271 C51.0948659,15.3804262 51.1489271,15.308919 51.2064481,15.2404971 C51.3633983,15.0647511 51.5387491,14.9079392 51.7292094,14.7730046 C52.4034003,14.2460771 53.6235626,13.8370127 55.089413,13.9935898 C55.6412996,14.0528118 56.4747676,14.2585173 56.8815571,14.8508447 C56.9876526,15.0723846 57.0630652,15.3085252 57.1055365,15.5521947 L57.1055365,15.5520729 Z M48.2009164,14.0651395 L50.0834368,14.0535869 C50.0834368,14.0535869 49.0342677,19.2474767 48.4995794,21.7802183 L46.3339606,21.7802183 C44.8204985,21.7802183 43.4726552,21.9758302 42.8991697,20.8450109 C42.3428736,19.7470578 42.8738122,17.9414715 43.1231468,16.7147561 C43.2994045,15.8466137 43.6706239,14.0722168 43.6706239,14.0722168 L45.6210802,14.0535869 C45.6210802,14.0535869 45.0699454,16.8161486 44.8406051,18.1955185 C44.7584936,18.6895915 44.5891161,19.1548405 44.7660178,19.5201535 C44.9339995,19.8678554 45.1692708,19.8927498 45.8860154,19.9099159 C46.1131117,19.9155365 46.8568363,19.9099159 46.8568363,19.9099159 L48.2009186,14.0651489 M39.3895875,17.805756 C39.5866945,17.0749075 39.8741912,16.2823687 39.8376494,15.6237538 C39.7762558,14.9901247 39.4106156,14.4324437 38.8669362,14.1432044 C37.9757351,13.8341695 36.9937317,14.0752909 36.3280559,14.7666019 C35.7986366,15.3651002 35.6193674,16.0642066 35.43193,17.0266691 C35.2924273,17.7411407 35.1780758,18.4954316 35.43193,19.052647 C35.8813921,20.0377673 37.2830788,19.8226403 38.7922435,19.8320618 C39.0162206,19.2055239 39.2014005,18.501818 39.3895875,17.8057397 L39.3895875,17.805756 Z M42.0031627,14.9225162 C42.2181121,16.5542516 41.3931355,18.3553485 40.8248068,19.9215809 C41.4043107,19.9762034 41.9121312,19.9131688 41.9486731,19.9582574 C41.9867184,20.0166949 41.5602577,21.8277753 41.4116218,21.8324802 C40.9517339,21.8449297 39.4277406,21.8581638 38.7922435,21.8581638 C36.7185134,21.8581638 34.7785906,21.9991462 33.7892833,20.9230688 C33.3903408,20.4365365 33.1314235,19.8421484 33.0424395,19.2085636 C32.9603977,18.3185328 33.0363641,17.4203433 33.2665266,16.5590712 C33.4262737,15.8514285 33.6774873,15.169743 34.0132627,14.5327514 C34.8846683,12.9454325 36.4004933,11.767171 38.9415234,12.039164 C39.5165236,12.1144734 40.0733804,12.2993554 40.584381,12.584609 C40.6148998,12.6033442 40.7218438,12.6921724 40.7463464,12.7077625 C41.3438004,13.1044804 41.8881605,14.0512404 42.0031582,14.9225139 L42.0031627,14.9225162 Z M32.8281477,14.0745774 C32.7027219,14.6707198 32.5773006,15.3464962 32.4451068,15.9355707 L30.3542906,15.9355707 C30.516256,15.2825647 30.6402793,14.6333688 30.8023547,14.0652683 C31.4713866,14.0652683 32.0934509,14.0745797 32.8282689,14.0745797 M30.2795979,16.4811281 L32.2958269,16.4811281 C32.032191,18.0038316 31.5101904,20.4600775 31.1010289,22.1698777 C30.8449173,23.2399036 30.6739241,24.0206627 29.9809259,24.5856227 C29.918912,24.6363202 29.8831219,24.6122057 29.831536,24.6635752 C29.7038505,24.7906561 29.1131735,24.9380459 28.7862334,24.9752822 C28.1912316,25.0101828 27.5947675,25.008123 27,24.9691136 C27.1709954,24.3168944 27.3644469,23.5336622 27.5168482,22.9490724 C29.1096257,23.1502932 29.1499285,21.5791264 29.4582746,20.065835 C29.6366753,19.1914186 30.1773888,16.8317527 30.2795912,16.4811281" id="Shape" fill="#FFFFFF"></path>
            <path d="M25,19.566539 L24.9587591,19.6771029 C24.256014,21.0927188 23.0106659,21.9611944 21.2344123,21.9995018 C20.4994183,22.0098428 19.7706354,21.8591044 19.0960021,21.5572021 C17.9986916,21.0343302 17.0973661,20.1537536 16.5301133,19.050381 C15.7951539,17.5779897 15.6626059,15.5298002 17.190797,14 C17.2143917,14 17.0054153,14.3317247 17.02901,14.3317247 L16.9869486,14.4732863 C15.8857413,18.0394974 19.2785156,21.0957056 22.5765983,20.746151 C23.4845728,20.6275891 24.3329261,20.2146454 25,19.5665412" id="Path" fill="#21609B"></path>
            <path d="M23.6217236,19.0659575 C24.514768,19.058132 25.3691917,18.6468416 26,17.9211364 C25.5167049,19.3293531 24.1173876,20.2344809 22.2409585,19.9466289 C20.6697225,19.7052948 19.1730176,17.8903361 19.0188741,16.0717014 C18.9061367,14.7481603 19.3079474,13.9582437 19.9701099,13 C19.7966443,13.3504204 19.6821388,13.735166 19.6325642,14.1341742 C19.3810377,16.997242 21.6249306,19.050875 23.6217144,19.0659575" id="Path" fill="#21609B"></path>
            <path d="M25.9999049,15.854353 C25.8726199,16.1960003 25.1395685,16.8411446 24.8158165,16.9218185 C23.533907,17.2413112 22.7129529,16.5301828 22.282882,15.72096 C22.2031874,15.5492219 22.1352291,15.370379 22.0796426,15.1861043 C21.9128592,14.5227134 21.9895177,13.5193373 22.4870306,13 C22.3462044,13.4616943 22.3141309,13.9592021 22.3941718,14.4403822 C22.4695805,14.7474656 22.5838941,15.0395988 22.7333058,15.3070533 C22.9250482,15.6503207 23.1923914,15.926728 23.5071645,16.1071492 C23.6299483,16.1955871 23.7603548,16.268647 23.8962251,16.3251192 C24.2191588,16.4363551 24.9009727,16.7293126 26,15.8543505" id="Path" fill="#21609B"></path>
            <rect id="Rectangle" fill="url(#linearGradient-3)" x="103" y="0" width="49" height="49"></rect>
            <rect id="Rectangle" fill="#FFFFFF" x="104" y="1" width="46" height="46"></rect>
            <rect id="Rectangle" fill="#387ED1" x="107" y="4" width="42" height="42"></rect>
            <rect id="Rectangle" fill="url(#linearGradient-4)" x="114" y="58" width="64" height="49"></rect>
            <rect id="Rectangle" fill="#FFFFFF" x="115" y="59" width="62" height="46"></rect>
            <rect id="Rectangle" fill="#387ED1" x="116" y="62" width="58" height="42"></rect>
            <g id="Group" opacity="0.7" transform="translate(122.000000, 128.000000)">
                <g opacity="0.1" transform="translate(7.959866, 0.000000)" fill="url(#linearGradient-5)" id="Path">
                    <polygon points="7.58916388 0.00984732824 7.58916388 4.25725191 7.58916388 5.67320611 7.58916388 24.5503053 7.58916388 25.9662595 7.58916388 29.9775573 1.96494983 29.9775573 0.0902876254 29.9775573 0.0902876254 25.9662595 0.0902876254 24.5503053 0.0902876254 5.67320611 0.0902876254 4.25725191 0.0902876254 0.00984732824 1.96494983 0.00984732824"></polygon>
                </g>
                <g opacity="0.1" fill="url(#linearGradient-6)" id="Path">
                    <polygon points="7.58165886 0.00984732824 7.58165886 4.25725191 7.58165886 5.67320611 7.58165886 24.5503053 7.58165886 25.9662595 7.58165886 29.9775573 1.95744482 29.9775573 0.0827826087 29.9775573 0.0827826087 25.9662595 0.0827826087 24.5503053 0.0827826087 5.67320611 0.0827826087 4.25725191 0.0827826087 0.00984732824 1.95744482 0.00984732824"></polygon>
                </g>
            </g>
            <rect id="Rectangle" fill="#387ED1" x="12" y="150" width="20" height="8" rx="4"></rect>
            <g id="Group" opacity="0.7" transform="translate(49.000000, 128.000000)">
                <g opacity="0.1" transform="translate(0.000000, 1.127451)" fill="url(#linearGradient-7)" id="Path">
                    <polygon points="0.188997531 0.00969607843 0.188997531 4.19186275 0.188997531 5.58606863 0.188997531 24.1732255 0.188997531 25.5674314 0.188997531 29.5171176 5.80667654 29.5171176 7.67916049 29.5171176 7.67916049 25.5674314 7.67916049 24.1732255 7.67916049 5.58606863 7.67916049 4.19186275 7.67916049 0.00969607843 5.80667654 0.00969607843"></polygon>
                </g>
                <g opacity="0.1" transform="translate(7.950617, 1.127451)" fill="url(#linearGradient-8)" id="Path">
                    <polygon points="0.196720988 0.00969607843 0.196720988 4.19186275 0.196720988 5.58606863 0.196720988 24.1732255 0.196720988 25.5674314 0.196720988 29.5171176 5.81417284 29.5171176 7.68665679 29.5171176 7.68665679 25.5674314 7.68665679 24.1732255 7.68665679 5.58606863 7.68665679 4.19186275 7.68665679 0.00969607843 5.81417284 0.00969607843"></polygon>
                </g>
                <g opacity="0.1" transform="translate(15.674074, 0.000000)" fill="url(#linearGradient-9)" id="Path">
                    <polygon points="14.9019556 28.7236176 8.68911605 5.60072549 8.68911605 5.60072549 8.32724938 4.25387255 8.32724938 4.25387255 7.24142222 0.212862745 0.00431604938 2.12885294 1.09014321 6.16986275 1.09014321 6.16986275 1.37840988 7.24251961 6.27758025 25.4763333 6.27758025 25.4763333 6.63944691 26.8231863 6.63944691 26.8231863 7.66484938 30.6396078"></polygon>
                </g>
            </g>
            <rect id="Rectangle" fill="#535461" x="50" y="129" width="7" height="28"></rect>
            <rect id="Rectangle" fill="#387ED1" x="50" y="133" width="7" height="1"></rect>
            <rect id="Rectangle" fill="#387ED1" x="50" y="153" width="7" height="1"></rect>
            <rect id="Rectangle" fill="#000000" opacity="0.1" x="56" y="129" width="1" height="28"></rect>
            <rect id="Rectangle" fill="#535461" x="58" y="129" width="7" height="28"></rect>
            <rect id="Rectangle" fill="#387ED1" x="58" y="133" width="7" height="1"></rect>
            <rect id="Rectangle" fill="#387ED1" x="58" y="153" width="7" height="1"></rect>
            <rect id="Rectangle" fill="#000000" opacity="0.1" x="64" y="129" width="1" height="28"></rect>
            <polygon id="Rectangle" fill="#535461" transform="translate(72.224279, 143.126714) rotate(-14.933990) translate(-72.224279, -143.126714) " points="68.6837332 129.004091 75.7845709 128.999116 75.7648247 157.249337 68.663987 157.254312"></polygon>
            <polygon id="Rectangle" fill="#387ED1" transform="translate(69.794359, 133.990515) rotate(-14.933990) translate(-69.794359, -133.990515) " points="66.2444071 133.325674 73.3452448 133.320699 73.3443119 134.655356 66.2434742 134.660331"></polygon>
            <polygon id="Rectangle" fill="#387ED1" transform="translate(74.711375, 152.477883) rotate(-14.933990) translate(-74.711375, -152.477883) " points="71.161423 151.813042 78.2622606 151.808066 78.2613277 153.142724 71.1604901 153.147699"></polygon>
            <polygon id="Rectangle" fill="#000000" opacity="0.1" transform="translate(74.796673, 142.438688) rotate(-14.933990) translate(-74.796673, -142.438688) " points="73.9189417 128.3142 75.6941506 128.312956 75.6744044 156.563177 73.8991955 156.564421"></polygon>
            <rect id="Rectangle" fill="#535461" transform="translate(132.500000, 143.000000) rotate(-180.000000) translate(-132.500000, -143.000000) " x="129" y="129" width="7" height="28"></rect>
            <rect id="Rectangle" fill="#387ED1" transform="translate(132.500000, 133.500000) rotate(-180.000000) translate(-132.500000, -133.500000) " x="129" y="133" width="7" height="1"></rect>
            <rect id="Rectangle" fill="#387ED1" transform="translate(132.500000, 153.500000) rotate(-180.000000) translate(-132.500000, -153.500000) " x="129" y="153" width="7" height="1"></rect>
            <rect id="Rectangle" fill="#000000" opacity="0.1" transform="translate(130.500000, 143.000000) rotate(-180.000000) translate(-130.500000, -143.000000) " x="130" y="129" width="1" height="28"></rect>
            <rect id="Rectangle" fill="#535461" transform="translate(124.500000, 143.000000) rotate(-180.000000) translate(-124.500000, -143.000000) " x="121" y="129" width="7" height="28"></rect>
            <rect id="Rectangle" fill="#387ED1" transform="translate(124.500000, 133.500000) rotate(-180.000000) translate(-124.500000, -133.500000) " x="121" y="133" width="7" height="1"></rect>
            <rect id="Rectangle" fill="#387ED1" transform="translate(124.500000, 153.500000) rotate(-180.000000) translate(-124.500000, -153.500000) " x="121" y="153" width="7" height="1"></rect>
            <rect id="Rectangle" fill="#000000" opacity="0.1" transform="translate(122.500000, 143.000000) rotate(-180.000000) translate(-122.500000, -143.000000) " x="122" y="129" width="1" height="28"></rect>
            <path d="M145.588672,145 L171.386233,145 C171.386233,145 176.475548,151.434794 168.578336,161 L148.221076,161 C148.221076,161 140.850345,154.391304 145.588672,145 Z" id="Path" fill="#387ED1"></path>
            <g id="Group" opacity="0.1" transform="translate(145.000000, 145.000000)" fill="#000000">
                <path d="M26.3361551,0.0361422222 L0.284307869,0.0361422222 C0.224957049,0.151077778 0.168924918,0.265253333 0.113305902,0.379337778 L25.4500377,0.379337778 C25.4500377,0.379337778 30.4634148,6.57506444 22.8985239,15.8230933 L23.500579,15.8230933 C31.4756354,6.38524222 26.3361551,0.0361422222 26.3361551,0.0361422222 Z" id="Path"></path>
            </g>
            <rect id="Rectangle" fill="#E0E0E0" x="0" y="157" width="179" height="7"></rect>
            <rect id="Rectangle" fill="#E0E0E0" x="8" y="163" width="163" height="3"></rect>
            <rect id="Rectangle" fill="#000000" opacity="0.1" x="8" y="164" width="163" height="1"></rect>
        </g>
        <g id="Npm-logo" transform="translate(74.000000, 66.000000)" fill-rule="nonzero">
            <path d="M0,0 L53,0 L53,17.6666667 L26.5,17.6666667 L26.5,20.6111111 L14.7222222,20.6111111 L14.7222222,17.6666667 L0,17.6666667 L0,0 Z M2.94444444,14.7222222 L8.83333333,14.7222222 L8.83333333,5.88888889 L11.7777778,5.88888889 L11.7777778,14.7222222 L14.7222222,14.7222222 L14.7222222,2.94444444 L2.94444444,2.94444444 L2.94444444,14.7222222 Z M17.6666667,2.94444444 L17.6666667,17.6666667 L23.5555556,17.6666667 L23.5555556,14.7222222 L29.4444444,14.7222222 L29.4444444,2.94444444 L17.6666667,2.94444444 Z M23.5555556,5.88888889 L26.5,5.88888889 L26.5,11.7777778 L23.5555556,11.7777778 L23.5555556,5.88888889 Z M32.3888889,2.94444444 L32.3888889,14.7222222 L38.2777778,14.7222222 L38.2777778,5.88888889 L41.2222222,5.88888889 L41.2222222,14.7222222 L44.1666667,14.7222222 L44.1666667,5.88888889 L47.1111111,5.88888889 L47.1111111,14.7222222 L50.0555556,14.7222222 L50.0555556,2.94444444 L32.3888889,2.94444444 Z" id="Shape" fill="#CB3837"></path>
            <polygon id="Path" fill="#FFFFFF" points="2.94444444 14.7222222 8.83333333 14.7222222 8.83333333 5.88888889 11.7777778 5.88888889 11.7777778 14.7222222 14.7222222 14.7222222 14.7222222 2.94444444 2.94444444 2.94444444"></polygon>
            <path d="M17.6666667,2.94444444 L17.6666667,17.6666667 L23.5555556,17.6666667 L23.5555556,14.7222222 L29.4444444,14.7222222 L29.4444444,2.94444444 L17.6666667,2.94444444 Z M26.5,11.7777778 L23.5555556,11.7777778 L23.5555556,5.88888889 L26.5,5.88888889 L26.5,11.7777778 Z" id="Shape" fill="#FFFFFF"></path>
            <polygon id="Path" fill="#FFFFFF" points="32.3888889 2.94444444 32.3888889 14.7222222 38.2777778 14.7222222 38.2777778 5.88888889 41.2222222 5.88888889 41.2222222 14.7222222 44.1666667 14.7222222 44.1666667 5.88888889 47.1111111 5.88888889 47.1111111 14.7222222 50.0555556 14.7222222 50.0555556 2.94444444"></polygon>
        </g>
    </g>
</svg>